Trimmed_running_0600000001_forces_filt20Hz.mot
version=1
nRows=53
nColumns=19
inDegrees=yes
endheader
time	R_ground_force_vx	R_ground_force_vy	R_ground_force_vz	R_ground_force_px	R_ground_force_py	R_ground_force_pz	R_ground_torque_x	R_ground_torque_y	R_ground_torque_z	L_ground_force_vx	L_ground_force_vy	L_ground_force_vz	L_ground_force_px	L_ground_force_py	L_ground_force_pz	L_ground_torque_x	L_ground_torque_y	L_ground_torque_z	
7.124500	  0.000000	  0.000000	  0.000000	  0.977230	  0.000000	 -0.278442	  0.000000	  0.000000	  0.000000	316.866449	584.849328	-52.488241	  0.704098	  0.000000	 -0.289410	  0.000000	 -1.924839	  0.000000
7.125000	  0.000000	  0.000000	  0.000000	  0.980330	  0.000000	 -0.276705	  0.000000	  0.000000	  0.000000	311.295982	561.985310	-49.805386	  0.701656	  0.000000	 -0.289326	  0.000000	 -2.047373	  0.000000
7.125500	  0.000000	  0.000000	  0.000000	  0.983585	  0.000000	 -0.275108	  0.000000	  0.000000	  0.000000	305.569564	539.307399	-47.138923	  0.699216	  0.000000	 -0.289247	  0.000000	 -2.125159	  0.000000
7.126000	  0.000000	  0.000000	  0.000000	  0.986841	  0.000000	 -0.273512	  0.000000	  0.000000	  0.000000	299.697335	516.837154	-44.505738	  0.696772	  0.000000	 -0.289175	  0.000000	 -2.158801	  0.000000
7.126500	  0.000000	  0.000000	  0.000000	  0.990097	  0.000000	 -0.271915	  0.000000	  0.000000	  0.000000	293.689080	494.596325	-41.922360	  0.694318	  0.000000	 -0.289112	  0.000000	 -2.149804	  0.000000
7.127000	  0.000000	  0.000000	  0.000000	  0.993352	  0.000000	 -0.270318	  0.000000	  0.000000	  0.000000	287.554236	472.606902	-39.404737	  0.691849	  0.000000	 -0.289060	  0.000000	 -2.100536	  0.000000
7.127500	  0.000000	  0.000000	  0.000000	  0.996608	  0.000000	 -0.268721	  0.000000	  0.000000	  0.000000	281.301934	450.891166	-36.968029	  0.689356	  0.000000	 -0.289022	  0.000000	 -2.014154	  0.000000
7.128000	  0.000000	  0.000000	  0.000000	  0.999863	  0.000000	 -0.267125	  0.000000	  0.000000	  0.000000	274.941057	429.471756	-34.626413	  0.686833	  0.000000	 -0.289000	  0.000000	 -1.894513	  0.000000
7.128500	  0.000000	  0.000000	  0.000000	  1.003118	  0.000000	 -0.265528	  0.000000	  0.000000	  0.000000	268.480318	408.371727	-32.392912	  0.684272	  0.000000	 -0.288997	  0.000000	 -1.746044	  0.000000
7.129000	  0.000000	  0.000000	  0.000000	  1.006374	  0.000000	 -0.263931	  0.000000	  0.000000	  0.000000	261.928352	387.614608	-30.279230	  0.681667	  0.000000	 -0.289017	  0.000000	 -1.573615	  0.000000
7.129500	  0.000000	  0.000000	  0.000000	  1.009630	  0.000000	 -0.262335	  0.000000	  0.000000	  0.000000	255.293813	367.224442	-28.295616	  0.679009	  0.000000	 -0.289061	  0.000000	 -1.382387	  0.000000
7.130000	  0.000000	  0.000000	  0.000000	  1.012885	  0.000000	 -0.260738	  0.000000	  0.000000	  0.000000	248.585482	347.225796	-26.450741	  0.676294	  0.000000	 -0.289134	  0.000000	 -1.177673	  0.000000
7.130500	  0.000000	  0.000000	  0.000000	  1.016120	  0.000000	 -0.259244	  0.000000	  0.000000	  0.000000	241.812369	327.643754	-24.751594	  0.673515	  0.000000	 -0.289239	  0.000000	 -0.964811	  0.000000
7.131000	  0.000000	  0.000000	  0.000000	  1.019356	  0.000000	 -0.257749	  0.000000	  0.000000	  0.000000	234.983793	308.503884	-23.203406	  0.670669	  0.000000	 -0.289378	  0.000000	 -0.749048	  0.000000
7.131500	  0.000000	  0.000000	  0.000000	  1.022592	  0.000000	 -0.256255	  0.000000	  0.000000	  0.000000	228.109448	289.832189	-21.809588	  0.667753	  0.000000	 -0.289555	  0.000000	 -0.535451	  0.000000
7.132000	  0.000000	  0.000000	  0.000000	  1.025827	  0.000000	 -0.254760	  0.000000	  0.000000	  0.000000	221.199441	271.654761	-20.571693	  0.664766	  0.000000	 -0.289772	  0.000000	 -0.328824	  0.000000
7.132500	  0.000000	  0.000000	  0.000000	  1.029063	  0.000000	 -0.253266	  0.000000	  0.000000	  0.000000	214.264303	253.996616	-19.489407	  0.661708	  0.000000	 -0.290033	  0.000000	 -0.133634	  0.000000
7.133000	  0.000000	  0.000000	  0.000000	  1.032298	  0.000000	 -0.251772	  0.000000	  0.000000	  0.000000	207.314985	236.880055	-18.560570	  0.658580	  0.000000	 -0.290339	  0.000000	  0.046069	  0.000000
7.133500	  0.000000	  0.000000	  0.000000	  1.035533	  0.000000	 -0.250277	  0.000000	  0.000000	  0.000000	200.362844	220.323709	-17.781228	  0.655386	  0.000000	 -0.290691	  0.000000	  0.206732	  0.000000
7.134000	  0.000000	  0.000000	  0.000000	  1.038769	  0.000000	 -0.248783	  0.000000	  0.000000	  0.000000	193.419612	204.342511	-17.145735	  0.649256	 -0.000000	 -0.269638	  0.000000	  0.345401	  0.000000
7.134500	  0.000000	  0.000000	  0.000000	  1.042005	  0.000000	 -0.247288	  0.000000	  0.000000	  0.000000	186.497351	188.947948	-16.646878	  0.643127	 -0.000000	 -0.248585	  0.000000	  0.459815	  0.000000
7.135000	  0.000000	  0.000000	  0.000000	  1.045240	  0.000000	 -0.245794	  0.000000	  0.000000	  0.000000	179.608398	174.148316	-16.276040	  0.636997	 -0.000000	 -0.227532	  0.000000	  0.548493	  0.000000
7.135500	  0.000000	  0.000000	  0.000000	  1.048538	  0.000000	 -0.244410	  0.000000	  0.000000	  0.000000	172.765286	159.948955	-16.023363	  0.630868	 -0.000000	 -0.206479	  0.000000	  0.610786	  0.000000
7.136000	  0.000000	  0.000000	  0.000000	  1.051837	  0.000000	 -0.243027	  0.000000	  0.000000	  0.000000	165.980636	146.352485	-15.877921	  0.624738	 -0.000000	 -0.185426	  0.000000	  0.646893	  0.000000
7.136500	  0.000000	  0.000000	  0.000000	  1.055135	  0.000000	 -0.241643	  0.000000	  0.000000	  0.000000	159.267037	133.359024	-15.827895	  0.618609	  0.000000	 -0.164373	  0.000000	  0.657840	  0.000000
7.137000	  0.000000	  0.000000	  0.000000	  1.058434	  0.000000	 -0.240260	  0.000000	  0.000000	  0.000000	152.636891	120.966402	-15.860735	  0.612479	  0.000000	 -0.143320	  0.000000	  0.645424	  0.000000
7.137500	  0.000000	  0.000000	  0.000000	  1.061732	  0.000000	 -0.238876	  0.000000	  0.000000	  0.000000	146.102251	109.170362	-15.963324	  0.606350	  0.000000	 -0.122267	  0.000000	  0.612143	  0.000000
7.138000	  0.000000	  0.000000	  0.000000	  1.065030	  0.000000	 -0.237493	  0.000000	  0.000000	  0.000000	139.674653	 97.964754	-16.122138	  0.600220	  0.000000	 -0.101215	  0.000000	  0.561103	  0.000000
7.138500	  0.000000	  0.000000	  0.000000	  1.068329	  0.000000	 -0.236110	  0.000000	  0.000000	  0.000000	133.364973	 87.341723	-16.323393	  0.594091	  0.000000	 -0.080162	  0.000000	  0.495915	  0.000000
7.139000	  0.000000	  0.000000	  0.000000	  1.071627	  0.000000	 -0.234726	  0.000000	  0.000000	  0.000000	127.183291	 77.291878	-16.553188	  0.587961	  0.000000	 -0.059109	  0.000000	  0.420569	  0.000000
7.139500	  0.000000	  0.000000	  0.000000	  1.074926	  0.000000	 -0.233342	  0.000000	  0.000000	  0.000000	121.138803	 67.804460	-16.797654	  0.585655	  0.000000	 -0.059380	  0.000000	  0.339286	  0.000000
7.140000	  0.000000	  0.000000	  0.000000	  1.078224	  0.000000	 -0.231959	  0.000000	  0.000000	  0.000000	115.239756	 58.867500	-17.043089	  0.583349	  0.000000	 -0.059651	  0.000000	  0.256374	  0.000000
7.140500	  0.000000	  0.000000	  0.000000	  1.081582	  0.000000	 -0.230708	  0.000000	  0.000000	  0.000000	109.493401	 50.467968	-17.276112	  0.581176	  0.000000	 -0.060075	  0.000000	  0.176063	  0.000000
7.141000	  0.000000	  0.000000	  0.000000	  1.084940	  0.000000	 -0.229458	  0.000000	  0.000000	  0.000000	103.905977	 42.591910	-17.483811	  0.579003	  0.000000	 -0.060498	  0.000000	  0.102365	  0.000000
7.141500	  0.000000	  0.000000	  0.000000	  1.088298	  0.000000	 -0.228207	  0.000000	  0.000000	  0.000000	 98.482699	 35.224580	-17.653895	  0.576830	  0.000000	 -0.060922	  0.000000	  0.038934	  0.000000
7.142000	  0.000000	  0.000000	  0.000000	  1.091656	  0.000000	 -0.226957	  0.000000	  0.000000	  0.000000	 93.227756	 28.350564	-17.774833	  0.574657	  0.000000	 -0.061345	  0.000000	 -0.011056	  0.000000
7.142500	  0.000000	  0.000000	  0.000000	  1.095014	  0.000000	 -0.225706	  0.000000	  0.000000	  0.000000	 88.144322	 21.953893	-17.835994	  0.572484	  0.000000	 -0.061769	  0.000000	 -0.045018	  0.000000
7.143000	  0.000000	  0.000000	  0.000000	  1.098371	  0.000000	 -0.224456	  0.000000	  0.000000	  0.000000	 83.234569	 16.018153	-17.827773	  0.570312	  0.000000	 -0.062193	  0.000000	 -0.061035	  0.000000
7.143500	  0.000000	  0.000000	  0.000000	  1.101729	  0.000000	 -0.223205	  0.000000	  0.000000	  0.000000	 78.499682	 10.526586	-17.741713	  0.568139	  0.000000	 -0.062616	  0.000000	 -0.057921	  0.000000
7.144000	  0.000000	  0.000000	  0.000000	  1.105087	  0.000000	 -0.221955	  0.000000	  0.000000	  0.000000	  0.000000	  0.000000	  0.000000	  0.565966	  0.000000	 -0.063040	  0.000000	  0.000000	  0.000000
7.144500	  0.000000	  0.000000	  0.000000	  1.108445	  0.000000	 -0.220704	  0.000000	  0.000000	  0.000000	  0.000000	  0.000000	  0.000000	  0.563793	  0.000000	 -0.063463	  0.000000	  0.000000	  0.000000
7.145000	  0.000000	  0.000000	  0.000000	  1.111803	  0.000000	 -0.219454	  0.000000	  0.000000	  0.000000	  0.000000	  0.000000	  0.000000	  0.561620	  0.000000	 -0.063887	  0.000000	  0.000000	  0.000000
7.145500	  0.000000	  0.000000	  0.000000	  1.115176	  0.000000	 -0.218342	  0.000000	  0.000000	  0.000000	  0.000000	  0.000000	  0.000000	  0.559435	  0.000000	 -0.064535	  0.000000	  0.000000	  0.000000
7.146000	  0.000000	  0.000000	  0.000000	  1.118549	  0.000000	 -0.217230	  0.000000	  0.000000	  0.000000	  0.000000	  0.000000	  0.000000	  0.557250	  0.000000	 -0.065182	  0.000000	  0.000000	  0.000000
7.146500	  0.000000	  0.000000	  0.000000	  1.121923	  0.000000	 -0.216119	  0.000000	  0.000000	  0.000000	  0.000000	  0.000000	  0.000000	  0.555064	  0.000000	 -0.065830	  0.000000	  0.000000	  0.000000
7.147000	  0.000000	  0.000000	  0.000000	  1.125296	  0.000000	 -0.215007	  0.000000	  0.000000	  0.000000	  0.000000	  0.000000	  0.000000	  0.552879	  0.000000	 -0.066477	  0.000000	  0.000000	  0.000000
7.147500	  0.000000	  0.000000	  0.000000	  1.128669	  0.000000	 -0.213895	  0.000000	  0.000000	  0.000000	  0.000000	  0.000000	  0.000000	  0.550694	  0.000000	 -0.067125	  0.000000	  0.000000	  0.000000
7.148000	  0.000000	  0.000000	  0.000000	  1.132042	  0.000000	 -0.212783	  0.000000	  0.000000	  0.000000	  0.000000	  0.000000	  0.000000	  0.548509	  0.000000	 -0.067773	  0.000000	  0.000000	  0.000000
7.148500	  0.000000	  0.000000	  0.000000	  1.135415	  0.000000	 -0.211671	  0.000000	  0.000000	  0.000000	  0.000000	  0.000000	  0.000000	  0.546324	  0.000000	 -0.068420	  0.000000	  0.000000	  0.000000
7.149000	  0.000000	  0.000000	  0.000000	  1.138789	  0.000000	 -0.210560	  0.000000	  0.000000	  0.000000	  0.000000	  0.000000	  0.000000	  0.544138	  0.000000	 -0.069068	  0.000000	  0.000000	  0.000000
7.149500	  0.000000	  0.000000	  0.000000	  1.142162	  0.000000	 -0.209448	  0.000000	  0.000000	  0.000000	  0.000000	  0.000000	  0.000000	  0.541953	  0.000000	 -0.069715	  0.000000	  0.000000	  0.000000
7.150000	  0.000000	  0.000000	  0.000000	  1.145535	  0.000000	 -0.208336	  0.000000	  0.000000	  0.000000	  0.000000	  0.000000	  0.000000	  0.539768	  0.000000	 -0.070363	  0.000000	  0.000000	  0.000000
7.150500	  0.000000	  0.000000	  0.000000	  1.148941	  0.000000	 -0.207434	  0.000000	  0.000000	  0.000000	  0.000000	  0.000000	  0.000000	  0.537499	  0.000000	 -0.071151	  0.000000	  0.000000	  0.000000
